<svg width="403" height="267" viewBox="0 0 403 267" fill="none" xmlns="http://www.w3.org/2000/svg">
<rect x="157.908" y="14.8376" width="234.172" height="145.31" fill="#EDEEEF"/>
<rect x="222.328" y="6.88599" width="105.332" height="18.4989" fill="#FF6498"/>
<path d="M274.994 14.4346C278.94 14.4346 282.14 11.2439 282.14 7.308C282.14 3.37209 278.94 0.181396 274.994 0.181396C271.047 0.181396 267.848 3.37209 267.848 7.308C267.848 11.2439 271.047 14.4346 274.994 14.4346Z" fill="#FF6498"/>
<rect x="222.328" y="6.88599" width="105.332" height="18.4989" fill="#DC911B"/>
<path d="M274.994 14.4346C278.94 14.4346 282.14 11.2439 282.14 7.308C282.14 3.37209 278.94 0.181396 274.994 0.181396C271.047 0.181396 267.848 3.37209 267.848 7.308C267.848 11.2439 271.047 14.4346 274.994 14.4346Z" fill="#DC911B"/>
<path d="M327.66 6.88586V25.3848H222.328" stroke="black" stroke-width="1.5" stroke-linecap="round" stroke-linejoin="round"/>
<path d="M392.08 14.8378V160.147H157.908" stroke="black" stroke-width="1.5" stroke-linecap="round" stroke-linejoin="round"/>
<path d="M148.252 256.846H401.735" stroke="black" stroke-width="1.5" stroke-linecap="round" stroke-linejoin="round"/>
<path d="M212.543 160.147L174.241 256.846" stroke="black" stroke-width="1.5" stroke-linecap="round" stroke-linejoin="round"/>
<path d="M337.444 160.147L375.746 256.846" stroke="black" stroke-width="1.5" stroke-linecap="round" stroke-linejoin="round"/>
<path d="M186.243 223.303H363.744" stroke="black" stroke-width="1.5" stroke-linecap="round" stroke-linejoin="round"/>
<path d="M49.7378 62.6394L68.6461 59.0054C59.906 64.7801 59.6453 65.0047 50.0957 73.233L49.7378 73.5414C49.7378 68.3274 49.7376 65.9574 49.7378 62.6394Z" fill="black"/>
<path d="M99.4561 191.567L49.7378 168.973C49.7378 168.973 51.2597 156.505 49.7378 138.479L68.0107 135.477L67.8561 147.801L127.106 180.349L99.4561 191.567Z" fill="black"/>
<path d="M49.7378 62.6394L68.6461 59.0054C59.906 64.7801 59.6453 65.0047 50.0957 73.233L49.7378 73.5414C49.7378 68.3274 49.7376 65.9574 49.7378 62.6394Z" stroke="black"/>
<path d="M99.4561 191.567L49.7378 168.973C49.7378 168.973 51.2597 156.505 49.7378 138.479L68.0107 135.477L67.8561 147.801L127.106 180.349L99.4561 191.567Z" stroke="black"/>
<path d="M144.72 133.751C144.72 133.751 205.973 154.064 229.078 223.945L239.223 228.454L206.536 238.598L153.562 181.468L116.127 156.549" fill="#E2E2E2"/>
<path d="M167.264 254.358C183.564 142.979 127.075 138.555 127.075 138.555L100.965 181.468L126.826 180.359L133.913 266.524L172.252 263L167.264 254.358Z" fill="#EDEEEF"/>
<path d="M167.264 254.358C183.564 142.979 127.075 138.555 127.075 138.555" stroke="black" stroke-width="1.5" stroke-linecap="round" stroke-linejoin="round"/>
<path d="M114.016 123.402L52.3624 138.555C52.3624 138.555 48.2847 185.851 114.016 181.468L149.617 131.63L114.016 123.402Z" fill="#EDEEEF"/>
<path d="M114.016 181.468L149.617 131.629" stroke="black" stroke-width="1.5" stroke-linecap="round" stroke-linejoin="round"/>
<path d="M52.3624 138.555C52.3624 138.555 48.2847 185.851 114.016 181.468" stroke="black" stroke-width="1.5" stroke-linecap="round" stroke-linejoin="round"/>
<path d="M70.9268 30.0838V37.0279C70.9268 42.3973 74.5925 47.0731 79.8067 48.3546L90.8571 51.0706V23.9205L81.6688 21.6622C79.0814 21.0263 76.3453 21.615 74.2484 23.2589C72.1516 24.9028 70.9268 27.4193 70.9268 30.0837V30.0838Z" fill="#EDEEEF"/>
<path d="M70.9268 37.028C70.9268 42.3974 74.5925 47.0731 79.8067 48.3547L90.8571 51.0707" stroke="black" stroke-width="1.5" stroke-linecap="round" stroke-linejoin="round"/>
<path d="M82.1851 35.6501C82.4794 35.6501 82.718 35.4116 82.718 35.1172C82.718 34.8229 82.4794 34.5844 82.1851 34.5844C81.8908 34.5844 81.6523 34.8229 81.6523 35.1172C81.6523 35.4116 81.8908 35.6501 82.1851 35.6501Z" fill="black"/>
<path d="M74.0004 35.6501C74.2947 35.6501 74.5332 35.4116 74.5332 35.1172C74.5332 34.8229 74.2947 34.5844 74.0004 34.5844C73.706 34.5844 73.4675 34.8229 73.4675 35.1172C73.4675 35.4116 73.706 35.6501 74.0004 35.6501Z" fill="black"/>
<path d="M76.4018 38.2962V30.084H72.2876" stroke="black" stroke-width="1.5" stroke-linecap="round" stroke-linejoin="round"/>
<path d="M83.1891 30.0839H79.075" stroke="black" stroke-width="1.5" stroke-linecap="round" stroke-linejoin="round"/>
<path d="M89.5444 34.2916V37.1435C91.0828 37.1435 92.3298 35.8964 92.3298 34.358C92.3298 34.2726 92.3261 34.1881 92.3185 34.1045C92.1624 32.3748 89.5444 32.5549 89.5444 34.2916Z" fill="#EDEEEF"/>
<path d="M89.5444 37.1434C91.0828 37.1434 92.3298 35.8963 92.3298 34.3579" stroke="black" stroke-width="1.5" stroke-linecap="round" stroke-linejoin="round"/>
<path d="M78.651 39.2556C78.9969 39.6015 79.466 39.7958 79.9552 39.7958C80.4444 39.7958 80.9135 39.6015 81.2594 39.2556" stroke="#DC911B" stroke-width="1.5" stroke-linecap="round" stroke-linejoin="round"/>
<path d="M76.4017 38.3026L78.2011 38.7449" stroke="black" stroke-width="1.5" stroke-linecap="round" stroke-linejoin="round"/>
<path d="M70.3519 27.1709L85.8818 27.9223C85.8818 27.9223 86.7703 33.0118 89.5444 33.5582" stroke="black" stroke-width="1.5" stroke-linecap="round" stroke-linejoin="round"/>
<path d="M70.352 40.5716L63.3385 38.2961C63.3385 38.2961 63.7143 11.7661 86.2576 15.7739C86.2576 15.7739 100.535 16.3478 102.038 31.7525C103.541 47.1572 103.306 48.1435 103.306 48.1435L90.8572 45.2056" stroke="black" stroke-width="1.5" stroke-linecap="round" stroke-linejoin="round"/>
<path d="M114.016 79.8806V123.402L52.3623 138.555V90.0845C52.3623 72.8976 64.0957 57.9312 80.7858 53.8291H80.7859C88.7899 51.8618 97.254 53.6831 103.74 58.7683C110.227 63.8536 114.016 71.6384 114.016 79.8806V79.8806Z" fill="#DC911B"/>
<path d="M70.352 58.1506C70.352 58.1506 29.5793 82.4924 14.9268 119.124C0.274294 155.755 74.0466 133.226 74.0466 133.226C74.0466 133.226 86.0449 134.009 90.5536 128.366L96.0226 127.824L95.3754 125.235L49.7876 115.215L70.9268 95.798" stroke="black" stroke-width="1.5" stroke-linecap="round" stroke-linejoin="round"/>
<path d="M49.7875 115.215L66.5072 118.89C54.3096 114.379 67.312 99.1191 67.3152 99.1154L49.7875 115.215Z" fill="black"/>
<path d="M75.7024 120.911C75.1909 120.542 73.7823 120.208 71.2148 119.925L75.7024 120.911Z" fill="black"/>
<path d="M108.726 63.8752L127.075 91.67C127.075 91.67 133.198 58.6064 141.715 55.6006C150.231 52.5948 154.239 51.0707 154.239 51.0707L155.192 54.0787L151.233 58.1506C151.233 58.1506 155.076 66.6218 148.646 68.6257C148.646 68.6257 167.679 122.686 128.897 126.841" stroke="black" stroke-width="1.5" stroke-linecap="round" stroke-linejoin="round"/>
<path d="M129.99 197.887C129.99 230.196 103.799 256.387 71.4899 256.387C39.1812 256.387 12.9899 230.196 12.9899 197.887C12.9899 165.579 39.1812 139.387 71.4899 139.387C103.799 139.387 129.99 165.579 129.99 197.887Z" fill="#EDEEEF" stroke="#EDEEEF" stroke-width="1.5"/>
<circle cx="67.2239" cy="198.361" r="65.926" stroke="black" stroke-width="1.5"/>
<ellipse cx="63.4319" cy="198.361" rx="10.428" ry="10.428" fill="black"/>
</svg>
